<?xml version="1.0" encoding="UTF-8" standalone="no"?>
<svg
   version="1.1"
   viewBox="0 0 128 128"
   id="svg12"
   width="128"
   height="128"
   xmlns="http://www.w3.org/2000/svg"
   xmlns:svg="http://www.w3.org/2000/svg">
  <defs
     id="defs1">
    <style
       id="current-color-scheme"
       type="text/css">
            .ColorScheme-Text {
                color:#232629;
            }
        </style>
  </defs>
  <g
     shape-rendering="auto"
     id="g12"
     transform="matrix(6.7718423,0,0,6.7714321,-10.125045,-10.761456)"
     style="fill:#ffffff;fill-opacity:1">
    <path
       d="m 11,7 c -2.2032167,0 -4,1.7967833 -4,4 0,2.203217 1.7967833,4 4,4 2.203217,0 4,-1.796783 4,-4 0,-2.2032167 -1.796783,-4 -4,-4 z m 0,1 c 1.662777,0 3,1.3372234 3,3 0,1.662777 -1.337223,3 -3,3 C 9.3372234,14 8,12.662777 8,11 8,9.3372234 9.3372234,8 11,8 Z"
       class="ColorScheme-Text"
       fill="currentColor"
       color-rendering="auto"
       dominant-baseline="auto"
       image-rendering="auto"
       id="path1"
       style="fill:#ffffff;fill-opacity:1" />
    <path
       d="m 10.5,3 v 3 h 1 V 3 Z"
       class="ColorScheme-Text"
       fill="currentColor"
       color-rendering="auto"
       dominant-baseline="auto"
       image-rendering="auto"
       id="path2"
       style="fill:#ffffff;fill-opacity:1" />
    <path
       d="m 10.5,16 v 3 h 1 v -3 z"
       class="ColorScheme-Text"
       fill="currentColor"
       color-rendering="auto"
       dominant-baseline="auto"
       image-rendering="auto"
       id="path3"
       style="fill:#ffffff;fill-opacity:1" />
    <path
       d="m 3,10.5 v 1 h 3 v -1 z"
       class="ColorScheme-Text"
       fill="currentColor"
       color-rendering="auto"
       dominant-baseline="auto"
       image-rendering="auto"
       id="path4"
       style="fill:#ffffff;fill-opacity:1" />
    <path
       d="m 16,10.5 v 1 h 3 v -1 z"
       class="ColorScheme-Text"
       fill="currentColor"
       color-rendering="auto"
       dominant-baseline="auto"
       image-rendering="auto"
       id="path5"
       style="fill:#ffffff;fill-opacity:1" />
    <path
       d="M 14.707031,14 14,14.707031 l 2.121094,2.121094 0.707031,-0.707031 z"
       class="ColorScheme-Text"
       fill="currentColor"
       color-rendering="auto"
       dominant-baseline="auto"
       image-rendering="auto"
       id="path6"
       style="fill:#ffffff;fill-opacity:1" />
    <path
       d="M 5.7070312,5 5,5.7070312 7.1210938,7.828125 7.828125,7.1210938 Z"
       class="ColorScheme-Text"
       fill="currentColor"
       color-rendering="auto"
       dominant-baseline="auto"
       image-rendering="auto"
       id="path7"
       style="fill:#ffffff;fill-opacity:1" />
    <path
       d="M 7.1210938,14 5,16.121094 5.7070312,16.828125 7.828125,14.707031 Z"
       class="ColorScheme-Text"
       fill="currentColor"
       color-rendering="auto"
       dominant-baseline="auto"
       image-rendering="auto"
       id="path8"
       style="fill:#ffffff;fill-opacity:1" />
    <path
       d="M 16.121094,5 14,7.1210938 14.707031,7.828125 16.828125,5.7070312 Z"
       class="ColorScheme-Text"
       fill="currentColor"
       color-rendering="auto"
       dominant-baseline="auto"
       image-rendering="auto"
       id="path9"
       style="fill:#ffffff;fill-opacity:1" />
    <g
       id="g11"
       style="fill:#ffffff;fill-opacity:1">
      <path
         d="m 11.000001,7.7500005 v 6.4999985 h 2.166665 l 1.083333,-2.166666 V 9.9166667 L 13.166666,7.7500005 Z"
         class="ColorScheme-Text"
         fill="currentColor"
         color-rendering="auto"
         dominant-baseline="auto"
         image-rendering="auto"
         id="path10"
         style="fill:#ffffff;fill-opacity:1" />
      <path
         d="M 10.984375,7.734375 V 7.75 14.265625 h 2.191406 l 1.089844,-2.177734 V 9.9121094 L 13.175781,7.734375 Z m 0.03125,0.03125 h 2.140625 l 1.078125,2.1542969 v 2.1601561 l -1.078125,2.154297 h -2.140625 z"
         class="ColorScheme-Text"
         fill="currentColor"
         color-rendering="auto"
         dominant-baseline="auto"
         image-rendering="auto"
         id="path11"
         style="fill:#ffffff;fill-opacity:1" />
    </g>
  </g>
</svg>
