<?xml version="1.0" encoding="UTF-8" standalone="no"?>
<svg
   viewBox="0 0 128 128"
   version="1.1"
   id="svg4"
   width="128"
   height="128"
   xmlns:xlink="http://www.w3.org/1999/xlink"
   xmlns="http://www.w3.org/2000/svg"
   xmlns:svg="http://www.w3.org/2000/svg">
  <defs
     id="defs4">
    <color-profile
       name="Built-in-display"
       xlink:href="../../../../.local/share/icc/edid-a8db8be128287cc0b42684402b9ed5a9.icc"
       id="color-profile1" />
  </defs>
  <style
     id="current-color-scheme"
     type="text/css">
        .ColorScheme-Text {
            color:#232629;
        }
    </style>
  <g
     class="ColorScheme-Text"
     fill="currentColor"
     id="g4"
     transform="matrix(7.40967,0,0,7.6190473,4.42878,3.3684253)"
     style="fill:#ffffff;fill-opacity:1">
    <path
       d="M 8,2 4,6 v 4 l 4,4 H 9 V 2 Z"
       id="path1"
       style="fill:#ffffff;fill-opacity:1" />
    <path
       d="m 2,6 v 4 H 3 V 6 Z"
       id="path2"
       style="fill:#ffffff;fill-opacity:1" />
    <path
       d="M 10.128906,4.615234 9.7988281,5.603516 A 3,3 0 0 1 11,8 3,3 0 0 1 9.7988281,10.396484 l 0.3281249,0.984375 A 4,4 0 0 0 12,8 4,4 0 0 0 10.128906,4.615234 Z"
       id="path3"
       style="fill:#ffffff;fill-opacity:1" />
    <path
       d="m 9.9453125,2.332031 -0.1679687,1 A 5,5 0 0 1 13,8 5,5 0 0 1 9.7792969,12.671875 l 0.1660156,0.998047 A 6,6 0 0 0 14,8 6,6 0 0 0 9.9453125,2.332031 Z"
       id="path4"
       style="fill:#ffffff;fill-opacity:1" />
  </g>
</svg>
